<svg version="1.1" id="Layer_1" xmlns="http://www.w3.org/2000/svg" xmlns:xlink="http://www.w3.org/1999/xlink" x="0px" y="0px"
	 width="100%" viewBox="0 0 358 358" enable-background="new 0 0 358 358" xml:space="preserve">
<path fill="#212225" opacity="1.000000" stroke="none" 
	d="
M196.000000,359.000000 
	C130.666672,359.000000 65.833359,359.000000 1.000026,359.000000 
	C1.000017,239.666702 1.000017,120.333397 1.000009,1.000074 
	C120.333282,1.000049 239.666565,1.000049 358.999878,1.000025 
	C358.999939,120.333260 358.999939,239.666519 358.999969,358.999878 
	C304.833344,359.000000 250.666672,359.000000 196.000000,359.000000 
M258.460846,27.033693 
	C253.002396,29.073429 247.465057,30.933035 242.135376,33.266846 
	C240.611771,33.934017 239.022598,35.796459 238.589279,37.412655 
	C226.422897,82.791092 214.520447,128.240448 202.302322,173.604797 
	C196.715195,194.349152 191.430405,215.233902 181.855057,234.658035 
	C181.100891,236.187897 180.211029,237.650848 178.911713,239.998871 
	C178.162720,237.698029 177.741974,236.479950 177.368484,235.247559 
	C159.581543,176.557236 141.951523,117.818573 123.890884,59.212612 
	C120.125427,46.993889 114.841759,35.236160 110.045944,23.351452 
	C109.511444,22.026890 107.418831,20.227531 106.327881,20.401228 
	C95.033752,22.199417 83.374825,22.425531 72.870491,27.882816 
	C68.700592,30.049191 66.393166,32.797482 66.038147,37.872242 
	C64.107674,65.467766 62.253281,93.080658 59.564247,120.608597 
	C53.722698,180.409164 51.525604,240.309341 53.413261,300.356232 
	C53.585102,305.822662 54.189194,311.359497 55.372437,316.690521 
	C57.162785,324.756866 62.479324,329.420044 70.257271,329.954376 
	C81.278038,330.711456 91.737175,328.074127 101.833344,323.797272 
	C104.230537,322.781799 104.654503,321.517639 103.951271,318.776550 
	C101.680656,309.926056 99.028740,301.022186 98.177338,291.983124 
	C92.234070,228.885147 94.330711,165.805862 99.490341,102.765358 
	C99.572594,101.760338 99.958328,100.780159 100.504204,98.562401 
	C101.497131,101.472206 102.113716,103.148460 102.643791,104.851646 
	C114.823677,143.987000 126.980583,183.129517 139.170624,222.261719 
	C149.037384,253.935852 158.679337,285.668427 163.607513,318.587982 
	C164.023392,321.365936 165.367142,321.923065 167.833374,322.308380 
	C178.135849,323.917877 185.656754,319.633881 190.143967,310.855286 
	C194.367691,302.592194 198.109344,293.941925 200.857346,285.087769 
	C220.417786,222.063629 239.667496,158.943054 259.026550,95.856377 
	C259.508514,94.285667 260.110596,92.751808 260.656647,91.200760 
	C261.121582,91.304794 261.586487,91.408829 262.051392,91.512863 
	C262.051392,101.121040 262.395355,110.743584 261.994507,120.335007 
	C259.733490,174.437103 257.144440,228.525940 255.042923,282.633881 
	C254.631927,293.216217 254.971527,304.003357 256.597137,314.441864 
	C258.376923,325.870361 264.918823,330.637085 276.418091,331.007477 
	C288.493408,331.396393 298.824646,326.106262 309.713043,320.638763 
	C300.022003,311.144623 297.317596,299.457947 296.267822,287.389771 
	C295.229614,275.454315 294.498260,263.437439 294.611816,251.465546 
	C295.255127,183.642700 296.029236,115.819824 297.203003,48.004635 
	C297.382172,37.653610 293.017761,30.202009 286.648193,23.125196 
	C284.031891,20.218374 280.965942,19.377499 277.182007,20.723583 
	C271.223755,22.843134 265.196838,24.769503 258.460846,27.033693 
z"/>
<path fill="#FCFCFC" opacity="1.000000" stroke="none" 
	d="
M258.829895,26.905674 
	C265.196838,24.769503 271.223755,22.843134 277.182007,20.723583 
	C280.965942,19.377499 284.031891,20.218374 286.648193,23.125196 
	C293.017761,30.202009 297.382172,37.653610 297.203003,48.004635 
	C296.029236,115.819824 295.255127,183.642700 294.611816,251.465546 
	C294.498260,263.437439 295.229614,275.454315 296.267822,287.389771 
	C297.317596,299.457947 300.022003,311.144623 309.713043,320.638763 
	C298.824646,326.106262 288.493408,331.396393 276.418091,331.007477 
	C264.918823,330.637085 258.376923,325.870361 256.597137,314.441864 
	C254.971527,304.003357 254.631927,293.216217 255.042923,282.633881 
	C257.144440,228.525940 259.733490,174.437103 261.994507,120.335007 
	C262.395355,110.743584 262.051392,101.121040 262.051392,91.512863 
	C261.586487,91.408829 261.121582,91.304794 260.656647,91.200760 
	C260.110596,92.751808 259.508514,94.285667 259.026550,95.856377 
	C239.667496,158.943054 220.417786,222.063629 200.857346,285.087769 
	C198.109344,293.941925 194.367691,302.592194 190.143967,310.855286 
	C185.656754,319.633881 178.135849,323.917877 167.833374,322.308380 
	C165.367142,321.923065 164.023392,321.365936 163.607513,318.587982 
	C158.679337,285.668427 149.037384,253.935852 139.170624,222.261719 
	C126.980583,183.129517 114.823677,143.987000 102.643791,104.851646 
	C102.113716,103.148460 101.497131,101.472206 100.504204,98.562401 
	C99.958328,100.780159 99.572594,101.760338 99.490341,102.765358 
	C94.330711,165.805862 92.234070,228.885147 98.177338,291.983124 
	C99.028740,301.022186 101.680656,309.926056 103.951271,318.776550 
	C104.654503,321.517639 104.230537,322.781799 101.833344,323.797272 
	C91.737175,328.074127 81.278038,330.711456 70.257271,329.954376 
	C62.479324,329.420044 57.162785,324.756866 55.372437,316.690521 
	C54.189194,311.359497 53.585102,305.822662 53.413261,300.356232 
	C51.525604,240.309341 53.722698,180.409164 59.564247,120.608597 
	C62.253281,93.080658 64.107674,65.467766 66.038147,37.872242 
	C66.393166,32.797482 68.700592,30.049191 72.870491,27.882816 
	C83.374825,22.425531 95.033752,22.199417 106.327881,20.401228 
	C107.418831,20.227531 109.511444,22.026890 110.045944,23.351452 
	C114.841759,35.236160 120.125427,46.993889 123.890884,59.212612 
	C141.951523,117.818573 159.581543,176.557236 177.368484,235.247559 
	C177.741974,236.479950 178.162720,237.698029 178.911713,239.998871 
	C180.211029,237.650848 181.100891,236.187897 181.855057,234.658035 
	C191.430405,215.233902 196.715195,194.349152 202.302322,173.604797 
	C214.520447,128.240448 226.422897,82.791092 238.589279,37.412655 
	C239.022598,35.796459 240.611771,33.934017 242.135376,33.266846 
	C247.465057,30.933035 253.002396,29.073429 258.829895,26.905674 
z"/>
</svg>